<svg xmlns="http://www.w3.org/2000/svg" width="180.779" height="170.368" viewBox="0 0 180.779 170.368"><defs><style>.a{fill:#f1f1f1;}.b,.k{fill:#21255c;}.b{opacity:0.1;}.c{fill:#ffddd7;}.d{fill:#e24913;}.e{fill:#f96e43;}.f,.m,.t{fill:#fff;}.f{opacity:0.4;}.g{fill:#ffb9ab;}.h{fill:#afa39a;}.i{fill:#c7d2d7;}.j{fill:#99857a;}.k,.l{opacity:0.3;}.l{fill:#5b3922;}.m{opacity:0.51;}.n{fill:#e8e5e3;}.o{fill:#e4e8ea;}.p{fill:#d6cec8;}.q{fill:#afa49a;}.r{fill:#ff8261;}.s{fill:#ff5e33;}.u{fill:#99a3b0;}</style></defs><path class="a" d="M426.689,308.746c35.42,20.45,92.65,20.45,127.839,0,16.872-9.8,25.588-22.528,26.212-35.373.677-13.945-8.19-28.031-26.628-38.676-35.42-20.45-92.662-20.456-127.851-.006-17.6,10.229-26.348,23.636-26.263,37.043S408.986,298.525,426.689,308.746Z" transform="translate(-399.997 -153.714)"/><g transform="translate(9.668 69.75)"><path class="b" d="M537.249,231.833c-13.789-7.961-36.073-7.963-49.772,0-6.852,3.982-10.258,9.2-10.224,14.42a13.248,13.248,0,0,0,2.381,7.3c-15.188-7.931-38.574-7.672-53.124.784C419,258.7,415.267,264.42,415.3,270.141s3.836,11.433,11.39,15.794c15.114,8.726,39.535,8.726,54.551,0,7.2-4.184,10.918-9.613,11.184-15.094a14.514,14.514,0,0,0-2.914-9.184c13.864,6.942,34.8,6.614,47.9-1,6.568-3.817,9.961-8.77,10.2-13.77C547.879,241.461,544.426,235.977,537.249,231.833Z" transform="translate(-415.303 -225.861)"/><path class="b" d="M475.233,317.362l13.263,7.644a9.473,9.473,0,0,0,9.471,0l95.35-55.077a3.158,3.158,0,0,0,0-5.468l-13.255-7.668a9.475,9.475,0,0,0-9.486,0l-95.348,55.1A3.158,3.158,0,0,0,475.233,317.362Z" transform="translate(-436.795 -236.783)"/></g><g transform="translate(14.133)"><g transform="translate(61.939)"><path class="c" d="M577.544,171.255c.214-4.407-2.588-8.859-8.414-12.223-11.193-6.462-29.283-6.464-40.4,0-5.562,3.232-8.327,7.469-8.3,11.706v46.211c.027,4.233,2.84,8.467,8.435,11.7,11.193,6.463,29.278,6.463,40.4,0,5.332-3.1,8.086-7.12,8.283-11.178.015-.3.013-.591,0-.886Z" transform="translate(-520.427 -129.71)"/><g transform="translate(0 42.804)"><path class="d" d="M569.261,194.9c-11.121,6.463-29.206,6.463-40.4,0-5.595-3.23-8.408-7.463-8.435-11.7v33.657c.027,4.233,2.84,8.466,8.435,11.7,11.193,6.462,29.278,6.462,40.4,0,5.332-3.1,8.086-7.12,8.283-11.179.015-.295.013-.591,0-.886v-32.77C577.347,187.779,574.593,191.8,569.261,194.9Z" transform="translate(-520.427 -183.202)"/><path class="e" d="M569.261,199.662c-11.121,6.463-29.206,6.463-40.4,0-5.595-3.23-8.408-7.463-8.435-11.7v2.927c.027,4.234,2.84,8.467,8.435,11.7,11.193,6.462,29.278,6.462,40.4,0,5.332-3.1,8.086-7.119,8.283-11.178.015-.3.013-.591,0-.886v-2.041C577.347,192.543,574.593,196.563,569.261,199.662Z" transform="translate(-520.427 -184.956)"/><path class="e" d="M569.261,239c-11.121,6.463-29.206,6.463-40.4,0-5.595-3.23-8.408-7.463-8.435-11.7v2.927c.027,4.233,2.84,8.467,8.435,11.7,11.193,6.463,29.278,6.463,40.4,0,5.332-3.1,8.086-7.12,8.283-11.178.015-.3.013-.591,0-.886v-2.041C577.347,231.885,574.593,235.906,569.261,239Z" transform="translate(-520.427 -199.448)"/></g><path class="f" d="M540.953,241.536l-3.368-1.373a5.21,5.21,0,0,1-3.242-4.824V194.9a2.171,2.171,0,0,1,2.99-2.01l3.368,1.374a5.209,5.209,0,0,1,3.242,4.823v40.443A2.171,2.171,0,0,1,540.953,241.536Z" transform="translate(-525.553 -143.905)"/><path class="b" d="M595.729,238.195l2.7-2.138a4.775,4.775,0,0,0,1.81-3.743V190.142a1.3,1.3,0,0,0-2.111-1.021l-2.7,2.138a4.776,4.776,0,0,0-1.81,3.743v42.171A1.3,1.3,0,0,0,595.729,238.195Z" transform="translate(-547.385 -142.474)"/><path class="g" d="M543.918,161.22c6.612,3.818,17.3,3.818,23.864,0,3.15-1.83,4.777-4.205,4.893-6.6.126-2.6-1.529-5.233-4.971-7.22-6.612-3.817-17.3-3.818-23.866,0-3.285,1.91-4.918,4.412-4.9,6.915S540.613,159.312,543.918,161.22Z" transform="translate(-527.244 -126.155)"/><g transform="translate(7.585)"><path class="h" d="M574.385,135.064c-.145,2.981-2.168,5.935-6.084,8.21-8.167,4.746-21.45,4.746-29.671,0-4.109-2.373-6.175-5.482-6.195-8.591v9.257h.01c-.113,3.206,1.947,6.437,6.185,8.884,8.221,4.746,21.5,4.746,29.671,0,4.211-2.447,6.233-5.678,6.084-8.885Z" transform="translate(-532.435 -122.527)"/><path class="i" d="M538.63,136.186c8.221,4.746,21.5,4.746,29.671,0,3.916-2.276,5.939-5.229,6.084-8.21.157-3.237-1.9-6.506-6.18-8.977-8.221-4.746-21.506-4.748-29.674,0-4.086,2.374-6.116,5.486-6.1,8.6S534.521,133.813,538.63,136.186Z" transform="translate(-532.435 -115.438)"/><path class="f" d="M568.3,141.576c-8.168,4.746-21.45,4.746-29.671,0-3.837-2.215-5.892-5.074-6.163-7.974-.02.227-.033.455-.032.683.02,3.109,2.086,6.218,6.195,8.591,8.221,4.746,21.5,4.746,29.671,0,3.916-2.276,5.939-5.229,6.084-8.21a7.217,7.217,0,0,0-.027-.991C574.092,136.55,572.082,139.379,568.3,141.576Z" transform="translate(-532.435 -122.129)"/><g transform="translate(7.963 4.613)"><path class="j" d="M567.235,124.95c5.1,2.945,5.127,7.719.06,10.664s-13.309,2.945-18.41,0-5.13-7.72-.062-10.664S562.134,122.005,567.235,124.95Z" transform="translate(-545.041 -122.741)"/></g><path class="k" d="M548.825,126.21c5.067-2.945,13.31-2.944,18.412,0,2.285,1.319,3.548,3.005,3.795,4.73.311-2.143-.954-4.351-3.795-5.991-5.1-2.945-13.345-2.945-18.412,0-2.8,1.625-4.038,3.808-3.734,5.933C545.338,129.178,546.581,127.515,548.825,126.21Z" transform="translate(-537.08 -118.128)"/><path class="f" d="M548.155,151v9.551a32.77,32.77,0,0,0,10.2,1.832V152.83A32.752,32.752,0,0,1,548.155,151Z" transform="translate(-538.225 -128.536)"/><path class="l" d="M588.584,146.723c-.351.2-.714.4-1.083.582v9.55c.368-.186.732-.378,1.083-.582a15.682,15.682,0,0,0,3.475-2.679v-9.549A15.694,15.694,0,0,1,588.584,146.723Z" transform="translate(-552.717 -125.975)"/></g><path class="m" d="M573.642,191.963v1.555a39.588,39.588,0,0,0,4.606-.81v-1.555A39.452,39.452,0,0,1,573.642,191.963Z" transform="translate(-540.028 -143.327)"/><path class="m" d="M598.29,171.189c-.317,3.439-2.722,6.823-7.244,9.45a27.788,27.788,0,0,1-4.786,2.175v1.555a27.835,27.835,0,0,0,4.786-2.174c4.683-2.722,7.1-6.254,7.276-9.82A8.56,8.56,0,0,0,598.29,171.189Z" transform="translate(-544.676 -135.973)"/><path class="f" d="M540,178.481a4.218,4.218,0,0,0-.416,4.379,4.11,4.11,0,0,0,4.856,1.4,5.63,5.63,0,0,0,2.735-2.091,4.612,4.612,0,0,0,.554-4.4,4.2,4.2,0,0,0-3.865-2.274C542.383,175.642,540.783,177.326,540,178.481Z" transform="translate(-527.321 -137.555)"/><path class="f" d="M555.737,188.18a3.274,3.274,0,0,0-.661,1.714,1.885,1.885,0,0,0,1.233,1.659,2.532,2.532,0,0,0,2.113-.224,4.262,4.262,0,0,0,1.948-3.847,2.538,2.538,0,0,0-1.193-1.911C557.229,184.467,556.521,186.927,555.737,188.18Z" transform="translate(-533.189 -141.168)"/></g><g transform="translate(1.518 12.29)"><path class="c" d="M489.937,198.572c.244-5.027-2.952-10.105-9.6-13.943-12.77-7.373-33.406-7.375-46.093,0-6.346,3.688-9.5,8.522-9.469,13.355V250.7c.031,4.83,3.241,9.659,9.623,13.344,12.77,7.373,33.4,7.373,46.089,0,6.082-3.535,9.225-8.123,9.45-12.753.016-.337.014-.674,0-1.011Z" transform="translate(-424.775 -151.176)"/><g transform="translate(0 48.833)"><path class="d" d="M480.487,225.547c-12.686,7.372-33.319,7.373-46.089,0-6.382-3.685-9.593-8.514-9.623-13.344v38.4c.031,4.83,3.241,9.659,9.623,13.344,12.77,7.373,33.4,7.373,46.089,0,6.082-3.535,9.225-8.122,9.45-12.753.016-.337.014-.674,0-1.011V212.794C489.712,217.424,486.57,222.012,480.487,225.547Z" transform="translate(-424.775 -212.203)"/><path class="e" d="M480.487,230.981c-12.686,7.373-33.319,7.373-46.089,0-6.382-3.685-9.593-8.514-9.623-13.344v3.34c.031,4.83,3.241,9.659,9.623,13.344,12.77,7.373,33.4,7.372,46.089,0,6.082-3.535,9.225-8.123,9.45-12.753.016-.337.014-.674,0-1.011v-2.328C489.712,222.859,486.57,227.446,480.487,230.981Z" transform="translate(-424.775 -214.205)"/><path class="e" d="M480.487,275.865c-12.686,7.373-33.319,7.373-46.089,0-6.382-3.685-9.593-8.515-9.623-13.345v3.34c.031,4.83,3.241,9.659,9.623,13.344,12.77,7.373,33.4,7.373,46.089,0,6.082-3.535,9.225-8.122,9.45-12.753.016-.337.014-.674,0-1.011v-2.328C489.712,267.743,486.57,272.33,480.487,275.865Z" transform="translate(-424.775 -230.737)"/></g><path class="f" d="M448.193,278.752l-3.842-1.567a5.943,5.943,0,0,1-3.7-5.5v-46.14a2.477,2.477,0,0,1,3.412-2.293l3.842,1.567a5.943,5.943,0,0,1,3.7,5.5v46.14A2.477,2.477,0,0,1,448.193,278.752Z" transform="translate(-430.623 -167.37)"/><path class="b" d="M510.685,274.941l3.079-2.438a5.448,5.448,0,0,0,2.065-4.271V220.121a1.486,1.486,0,0,0-2.409-1.165l-3.079,2.439a5.448,5.448,0,0,0-2.065,4.27v48.112A1.486,1.486,0,0,0,510.685,274.941Z" transform="translate(-455.531 -165.738)"/><path class="g" d="M451.575,187.124c7.543,4.355,19.731,4.355,27.225,0,3.593-2.088,5.449-4.8,5.582-7.533.144-2.969-1.744-5.969-5.67-8.236-7.543-4.355-19.734-4.357-27.228,0-3.748,2.178-5.611,5.034-5.593,7.889S447.8,184.948,451.575,187.124Z" transform="translate(-432.552 -147.121)"/><g transform="translate(8.654)"><path class="h" d="M486.333,157.285c-.165,3.4-2.473,6.77-6.94,9.366-9.318,5.415-24.472,5.415-33.85,0-4.688-2.706-7.046-6.254-7.068-9.8v10.56h.011c-.128,3.659,2.221,7.344,7.056,10.136,9.378,5.415,24.533,5.415,33.85,0,4.8-2.792,7.111-6.478,6.94-10.136Z" transform="translate(-438.475 -142.982)"/><path class="i" d="M445.543,158.564c9.378,5.415,24.533,5.415,33.85,0,4.467-2.6,6.775-5.965,6.94-9.366.179-3.693-2.169-7.422-7.051-10.241-9.379-5.415-24.536-5.417-33.854,0-4.66,2.708-6.977,6.259-6.954,9.809S440.855,155.858,445.543,158.564Z" transform="translate(-438.475 -134.895)"/><path class="f" d="M479.393,164.713c-9.318,5.415-24.472,5.415-33.85,0-4.377-2.527-6.722-5.788-7.031-9.1-.023.26-.039.52-.037.78.022,3.547,2.38,7.094,7.068,9.8,9.378,5.415,24.533,5.415,33.85,0,4.467-2.6,6.775-5.965,6.94-9.366a8.14,8.14,0,0,0-.031-1.131C486,158.98,483.705,162.207,479.393,164.713Z" transform="translate(-438.475 -142.527)"/><g transform="translate(9.085 5.262)"><path class="j" d="M478.177,145.746c5.82,3.36,5.85,8.806.069,12.166s-15.184,3.36-21,0-5.852-8.807-.071-12.167S472.358,142.386,478.177,145.746Z" transform="translate(-452.857 -143.226)"/></g><path class="k" d="M457.174,147.184c5.782-3.36,15.186-3.359,21,0,2.607,1.505,4.048,3.429,4.33,5.4.354-2.445-1.088-4.964-4.33-6.835-5.819-3.359-15.223-3.36-21,0-3.191,1.855-4.607,4.345-4.26,6.769C453.2,150.57,454.613,148.671,457.174,147.184Z" transform="translate(-443.774 -137.963)"/><path class="f" d="M456.41,175.463v10.9a37.361,37.361,0,0,0,11.639,2.09v-10.9A37.379,37.379,0,0,1,456.41,175.463Z" transform="translate(-445.081 -149.837)"/><path class="l" d="M502.533,170.585c-.4.232-.815.451-1.236.664v10.9c.421-.213.835-.431,1.236-.664a17.877,17.877,0,0,0,3.964-3.056V167.531A17.886,17.886,0,0,1,502.533,170.585Z" transform="translate(-461.614 -146.916)"/></g><path class="m" d="M485.486,222.2v1.774a45,45,0,0,0,5.254-.924v-1.774A44.991,44.991,0,0,1,485.486,222.2Z" transform="translate(-447.137 -166.711)"/><path class="m" d="M513.606,198.5c-.362,3.924-3.106,7.783-8.265,10.781a31.761,31.761,0,0,1-5.46,2.481v1.774a31.76,31.76,0,0,0,5.46-2.481c5.343-3.1,8.1-7.135,8.3-11.2A9.662,9.662,0,0,0,513.606,198.5Z" transform="translate(-452.439 -158.322)"/><path class="f" d="M447.109,206.816a4.812,4.812,0,0,0-.475,5c1.059,1.795,3.575,2.293,5.54,1.6a6.418,6.418,0,0,0,3.12-2.386,5.262,5.262,0,0,0,.632-5.02,4.789,4.789,0,0,0-4.408-2.594C449.825,203.577,448,205.5,447.109,206.816Z" transform="translate(-432.64 -160.126)"/><path class="f" d="M465.06,217.881a3.747,3.747,0,0,0-.755,1.956,2.15,2.15,0,0,0,1.407,1.892,2.884,2.884,0,0,0,2.41-.255,4.863,4.863,0,0,0,2.223-4.389,2.894,2.894,0,0,0-1.362-2.181C466.761,213.645,465.954,216.452,465.06,217.881Z" transform="translate(-439.335 -164.248)"/></g><g transform="translate(0 68.226)"><g transform="translate(91.764)"><g transform="translate(36.362)"><path class="i" d="M638.825,225c-2.993-1.728-5.717-1.963-7.752-.959l0,0-.086.047c-.044.023-.09.043-.133.067s-.815.464-.866.494l-.029.018-.769.422.055.1c-1.57,1.333-2.517,3.63-2.526,6.722-.02,7.21,5.051,15.994,11.323,19.615,2.688,1.552,5.158,1.9,7.108,1.23l.044.076,1.219-.7a5.44,5.44,0,0,0,.838-.488c1.8-1.275,2.892-3.686,2.9-7.019C650.171,237.407,645.1,228.624,638.825,225Z" transform="translate(-625.764 -223.448)"/><path class="n" d="M647.932,246.1c.02-7.211-5.051-15.994-11.326-19.617-3.1-1.791-5.917-1.982-7.974-.849-.052.028-.1.059-.155.089-.035.021-.069.044-.1.065-1.951,1.22-3.155,3.7-3.165,7.193-.02,7.211,5.05,15.994,11.323,19.615,3.374,1.949,6.409,2.006,8.5.523C646.825,251.84,647.922,249.429,647.932,246.1Z" transform="translate(-625.209 -223.991)"/></g><g transform="translate(11.56 9.212)"><path class="o" d="M622.163,238.733a3.611,3.611,0,0,0-3.649-.354l-32.57,18.787a3.647,3.647,0,0,1,3.6.383,11.261,11.261,0,0,1,5.11,8.85,3.72,3.72,0,0,1-1.309,3.167h0l32.123-18.545a2.431,2.431,0,0,0,.591-.341h0a3.8,3.8,0,0,0,1.217-3.1A11.262,11.262,0,0,0,622.163,238.733Z" transform="translate(-585.944 -238.03)"/><path class="i" d="M598.726,268.9a8.365,8.365,0,0,1,.239,1.934A3.72,3.72,0,0,1,597.655,274l32.123-18.544a2.43,2.43,0,0,0,.591-.341h0a3.8,3.8,0,0,0,1.217-3.1,8.365,8.365,0,0,0-.243-1.949Z" transform="translate(-590.258 -242.464)"/><path class="f" d="M622.163,238.733a3.611,3.611,0,0,0-3.649-.354l-32.57,18.787a3.647,3.647,0,0,1,3.6.383,11.261,11.261,0,0,1,5.11,8.85,3.72,3.72,0,0,1-1.309,3.167h0l32.123-18.545a2.431,2.431,0,0,0,.591-.341h0a3.8,3.8,0,0,0,1.217-3.1A11.262,11.262,0,0,0,622.163,238.733Z" transform="translate(-585.944 -238.03)"/></g><g transform="translate(0 10.516)"><path class="i" d="M586.792,242.4c-4.441-2.564-8.482-2.913-11.5-1.424l0-.005-.128.07c-.066.034-.133.063-.2.1s-.154.088-.23.133l-.044.027-1.14.625.082.142c-2.33,1.978-3.735,5.385-3.748,9.973-.03,10.7,7.493,23.731,16.8,29.1,3.988,2.3,7.652,2.819,10.546,1.826l.065.113.754-.439a8.035,8.035,0,0,0,1.243-.724c2.664-1.891,4.292-5.469,4.305-10.414C603.626,260.807,596.1,247.776,586.792,242.4Z" transform="translate(-568.468 -240.095)"/><path class="n" d="M601.359,272.748c.03-10.7-7.494-23.73-16.8-29.106-4.6-2.657-8.778-2.942-11.83-1.26-.078.043-.154.088-.23.133-.052.031-.1.064-.153.1-2.894,1.812-4.682,5.49-4.7,10.673-.03,10.7,7.494,23.73,16.8,29.1,5.007,2.891,9.509,2.975,12.608.776C599.716,281.271,601.344,277.693,601.359,272.748Z" transform="translate(-567.644 -240.551)"/></g></g><g transform="translate(0 20.88)"><path class="o" d="M550.228,257.916c-2.87-1.657-5.47-1.807-7.346-.713l-65.564,37.82c1.868-1.029,4.424-.855,7.241.771,5.7,3.29,10.3,11.266,10.285,17.815-.009,3.027-1.006,5.217-2.636,6.374h0l64.665-37.33a4.917,4.917,0,0,0,1.19-.687h0c1.52-1.189,2.441-3.325,2.449-6.235C560.532,269.183,555.927,261.206,550.228,257.916Z" transform="translate(-442.61 -256.503)"/><g transform="translate(80.188 6.741)"><path class="p" d="M583,267.982c-1.639-.946-3.124-1.031-4.195-.407l-6.588,3.8c4.557,2.678,8.248,8.923,8.494,14.245l6.084-3.512a2.8,2.8,0,0,0,.68-.392h0a4.36,4.36,0,0,0,1.4-3.561A12.946,12.946,0,0,0,583,267.982Z" transform="translate(-557.752 -267.175)"/><path class="q" d="M565.335,273.107c-.026-.015-.051-.034-.078-.049-2.51-1.449-4.772-1.519-6.354-.46l-5.369,3.148c1.555-.822,3.664-.663,5.986.678,4.762,2.75,8.61,9.414,8.6,14.887-.008,2.695-.952,4.595-2.475,5.5l5.476-3.223a4.091,4.091,0,0,0,.5-.292h0c1.385-.96,2.232-2.8,2.239-5.354,0-.2-.015-.395-.023-.592C573.583,282.029,569.892,275.784,565.335,273.107Z" transform="translate(-550.871 -268.906)"/><path class="i" d="M566.563,293.272c.015-5.472-3.833-12.137-8.6-14.887-2.322-1.34-4.431-1.5-5.986-.678-.111.058-.219.121-.323.189h0c-1.443.94-2.332,2.806-2.34,5.419,0,.031,0,.063,0,.094.027,5.263,3.6,11.587,8.1,14.48.164.105.325.217.491.312,2.362,1.364,4.5,1.507,6.067.638h0c.036-.02.071-.042.107-.063C565.611,297.867,566.554,295.967,566.563,293.272Z" transform="translate(-549.318 -270.869)"/></g><path class="o" d="M476.944,317.669l0,0,.094-.059Z" transform="translate(-442.472 -279.012)"/><g transform="translate(40.01 15.59)"><path class="r" d="M485.712,305.572l41.723-24.222a1.414,1.414,0,0,1,.727-.167,5.663,5.663,0,0,1,2.627.878c4.428,2.557,8.3,9.259,8.286,14.342-.005,1.76-.476,2.755-.916,3.1a.9.9,0,0,1-.229.131l-.257.1-40.985,23.92Z" transform="translate(-485.712 -281.183)"/><path class="s" d="M497.353,323.654l3.623,5.971,40.985-23.92.257-.1a.911.911,0,0,0,.229-.131c.44-.344.911-1.338.916-3.1a14.456,14.456,0,0,0-1-4.987Z" transform="translate(-490 -287.15)"/></g><g transform="translate(0 37.879)"><path class="n" d="M493.032,335.7c.018-6.548-4.587-14.525-10.285-17.815-2.817-1.626-5.373-1.8-7.241-.771l-.141.081-.094.059c-1.771,1.109-2.866,3.36-2.875,6.532-.018,6.548,4.587,14.525,10.283,17.814,3.065,1.769,5.82,1.821,7.717.474C492.026,340.914,493.023,338.724,493.032,335.7Z" transform="translate(-440.797 -316.469)"/><path class="t" d="M484.3,317.882c-2.817-1.626-5.373-1.8-7.241-.771l-.141.081-.093.059c-.076.047-.144.109-.218.162a8.148,8.148,0,0,1,6.118,1.222c5.7,3.29,10.3,11.266,10.285,17.814-.008,3.015-1,5.2-2.616,6.358a4.973,4.973,0,0,0,1.556-.737c1.63-1.157,2.627-3.347,2.636-6.374C494.6,329.148,489.995,321.172,484.3,317.882Z" transform="translate(-442.346 -316.469)"/><path class="i" d="M486.579,338.184a6.256,6.256,0,0,0-2.838-4.916,2.007,2.007,0,0,0-2.028-.2h0l-4.593,2.615,4.175,6.878,4.28-2.47a1.37,1.37,0,0,0,.328-.19h0A2.109,2.109,0,0,0,486.579,338.184Z" transform="translate(-442.537 -322.513)"/><g transform="translate(0 10.584)"><path class="d" d="M484.2,340.635a8.739,8.739,0,0,0-3.964-6.867,2.855,2.855,0,0,0-2.742-.319l0,0-.024.014c-.054.029-.1.063-.156.1l-1.1.677.256.443a3.973,3.973,0,0,0-.226,1.364,8.738,8.738,0,0,0,3.964,6.866,4.026,4.026,0,0,0,1.295.495l.313.543,1.1-.7a1.879,1.879,0,0,0,.388-.248l.008-.005h0A2.992,2.992,0,0,0,484.2,340.635Z" transform="translate(-442.205 -333.225)"/><path class="e" d="M476.99,334.957c-1.518-.876-2.839-.659-3.513.392h0l-2.8,4.123,2.946,5.542,5.069-.369,0-.006c1.336.032,2.263-1,2.268-2.813A8.736,8.736,0,0,0,476.99,334.957Z" transform="translate(-440.163 -333.663)"/><g transform="translate(29.898 5.63)"><path class="d" d="M471.95,342.445a4.921,4.921,0,0,1,2.233,3.867c0,1.422-1.01,2-2.247,1.281a4.92,4.92,0,0,1-2.232-3.867C469.707,342.3,470.713,341.73,471.95,342.445Z" transform="translate(-469.703 -342.137)"/></g><path class="p" d="M454.844,346.855a1.485,1.485,0,0,0-.674-1.167.494.494,0,0,0-.449-.06v0l-.014.008-.027.016-25.557,14.477a24.526,24.526,0,0,0-5.394,4.137l-.357.363,1.2-.375a24.516,24.516,0,0,0,4.8-2.079l26.243-14.87h0A.451.451,0,0,0,454.844,346.855Z" transform="translate(-422.371 -337.782)"/></g></g><path class="f" d="M550.228,257.916c-2.87-1.657-5.47-1.807-7.346-.713l-65.564,37.82c1.868-1.029,4.424-.855,7.241.771,5.7,3.29,10.3,11.266,10.285,17.815-.009,3.027-1.006,5.217-2.636,6.374h0l64.665-37.33a4.917,4.917,0,0,0,1.19-.687h0c1.52-1.189,2.441-3.325,2.449-6.235C560.532,269.183,555.927,261.206,550.228,257.916Z" transform="translate(-442.61 -256.503)"/><g transform="translate(47.441 5.747)"><path class="d" d="M498.39,315.427l-.915.528a27.447,27.447,0,0,1,5.091,6.04l.871-.5A28.942,28.942,0,0,0,498.39,315.427Z" transform="translate(-497.475 -283.953)"/><path class="d" d="M503.787,312.313l-.914.527a26.67,26.67,0,0,1,3.8,4.161l.875-.5A28.105,28.105,0,0,0,503.787,312.313Z" transform="translate(-499.463 -282.806)"/><path class="d" d="M509.185,309.2l-.915.528a26.66,26.66,0,0,1,3.813,4.173l.875-.5A28.189,28.189,0,0,0,509.185,309.2Z" transform="translate(-501.451 -281.659)"/><path class="d" d="M514.583,306.084l-.915.528a26.649,26.649,0,0,1,3.822,4.184l.875-.5A28.164,28.164,0,0,0,514.583,306.084Z" transform="translate(-503.439 -280.512)"/><path class="d" d="M519.98,302.97l-.914.528a27.464,27.464,0,0,1,5.091,6.04l.87-.5A28.912,28.912,0,0,0,519.98,302.97Z" transform="translate(-505.428 -279.365)"/><path class="d" d="M525.378,299.856l-.915.528a26.757,26.757,0,0,1,3.979,4.4l.875-.5A28.2,28.2,0,0,0,525.378,299.856Z" transform="translate(-507.416 -278.218)"/><path class="d" d="M530.775,296.742l-.914.527a26.78,26.78,0,0,1,3.988,4.408l.875-.5A28.249,28.249,0,0,0,530.775,296.742Z" transform="translate(-509.404 -277.071)"/><path class="d" d="M536.173,293.627l-.915.528a26.781,26.781,0,0,1,4,4.42l.874-.5A28.274,28.274,0,0,0,536.173,293.627Z" transform="translate(-511.392 -275.923)"/><path class="d" d="M541.571,290.513l-.915.528a27.461,27.461,0,0,1,5.091,6.04l.87-.5A28.909,28.909,0,0,0,541.571,290.513Z" transform="translate(-513.38 -274.776)"/><path class="d" d="M546.968,287.4l-.914.528a26.8,26.8,0,0,1,4.012,4.443l.875-.5A28.275,28.275,0,0,0,546.968,287.4Z" transform="translate(-515.368 -273.629)"/><path class="d" d="M552.366,284.285l-.915.528a26.8,26.8,0,0,1,4.021,4.454l.874-.5A28.263,28.263,0,0,0,552.366,284.285Z" transform="translate(-517.356 -272.482)"/><path class="d" d="M557.764,281.171l-.915.527a26.822,26.822,0,0,1,4.029,4.467l.875-.5A28.289,28.289,0,0,0,557.764,281.171Z" transform="translate(-519.344 -271.335)"/><path class="d" d="M563.161,278.056l-.914.528a27.47,27.47,0,0,1,5.091,6.041l.87-.5A28.913,28.913,0,0,0,563.161,278.056Z" transform="translate(-521.333 -270.188)"/><path class="d" d="M568.559,274.942l-.915.528a26.716,26.716,0,0,1,3.909,4.3l.875-.5A28.22,28.22,0,0,0,568.559,274.942Z" transform="translate(-523.32 -269.041)"/><path class="d" d="M573.956,271.828l-.914.528a26.711,26.711,0,0,1,3.917,4.31l.875-.5A28.21,28.21,0,0,0,573.956,271.828Z" transform="translate(-525.309 -267.894)"/><path class="d" d="M579.354,268.714l-.915.528a26.677,26.677,0,0,1,3.926,4.322l.875-.5A28.221,28.221,0,0,0,579.354,268.714Z" transform="translate(-527.297 -266.747)"/><path class="d" d="M584.752,265.6l-.915.527a27.467,27.467,0,0,1,5.091,6.041l.87-.5A28.921,28.921,0,0,0,584.752,265.6Z" transform="translate(-529.285 -265.6)"/></g><path class="u" d="M572.526,311.456h0Z" transform="translate(-477.678 -276.743)"/><path class="u" d="M553.022,278.3Z" transform="translate(-470.494 -264.532)"/></g></g></g></svg>