<svg xmlns="http://www.w3.org/2000/svg" xmlns:xlink="http://www.w3.org/1999/xlink" width="72" height="75.656" viewBox="0 0 72 75.656"><defs><style>.a{fill:url(#a);}</style><linearGradient id="a" y1="0.5" x2="1" y2="0.5" gradientUnits="objectBoundingBox"><stop offset="0" stop-color="#ef4b22"/><stop offset="1" stop-color="#f69427"/></linearGradient></defs><g transform="translate(-14 -11)"><g transform="translate(14 11)"><path class="a" d="M52.356,11a2.9,2.9,0,0,1,2.9,2.9V25.263H82.622A3.378,3.378,0,0,1,86,28.64V50.526A3.378,3.378,0,0,1,82.622,53.9H55.251V83.761a2.9,2.9,0,0,1-2.9,2.9H16.9a2.9,2.9,0,0,1-2.9-2.9V13.9A2.9,2.9,0,0,1,16.9,11Zm0,2.9H16.9V83.761h35.46V53.9H51.6a.483.483,0,0,0-.384.191L43.97,63.63a1.421,1.421,0,0,1-1.594.5l-.041.054v-.068a1.421,1.421,0,0,1-.965-1.365V28.64a3.378,3.378,0,0,1,3.378-3.378h7.607ZM34.625,72.585a3.277,3.277,0,1,1-3.277,3.277A3.277,3.277,0,0,1,34.625,72.585Zm48-44.427H44.747a.483.483,0,0,0-.483.483V58.457l4.646-6.114A3.378,3.378,0,0,1,51.6,51.008H82.622a.483.483,0,0,0,.483-.483V28.64A.483.483,0,0,0,82.622,28.158ZM55.1,36.541A2.458,2.458,0,1,1,52.647,39,2.458,2.458,0,0,1,55.1,36.541Zm9.83,0A2.458,2.458,0,1,1,62.478,39,2.458,2.458,0,0,1,64.935,36.541Zm9.83,0A2.458,2.458,0,1,1,72.308,39,2.458,2.458,0,0,1,74.765,36.541ZM37.083,17.89a1.448,1.448,0,0,1,.139,2.889l-.139.007H32.168a1.448,1.448,0,0,1-.139-2.889l.139-.007Z" transform="translate(-14 -11)"/></g></g></svg>